# xmcd
#
# Track frame offsets:
#	150
#	12390
#	22583
#	42777
#	50820
#	63504
#	78542
#	89939
#	98729
#	113941
#	129062
#	147253
#	174532
#	189854
#	202454
#
# Disc length: 2937 seconds
#
# Revision: 0
# Processed by: cddbd v1.4PL0 Copyright (c) Steve Scherf et al.
#
# Submitted via: MusicManager v6.0.0.0
#
DISCID=cf0b770f
DTITLE=Ernest Tubb - The Complete Live 1965 Show #2
DYEAR=1900
DGENRE=country
TTITLE0=Thanks a Lot (Live 1965)
TTITLE1=You Don't Have to Be a Baby to Cry (Live 1965)
TTITLE2=Lonesome 7-7203 (Cal Smith) (Live 1965)
TTITLE3=Panhandle Rag (Live 1965)
TTITLE4=Do What You Do Well (Live 1965)
TTITLE5=Soldier's Last Letter (Live 1965)
TTITLE6=(A Memory) That's All You'll Ever Be To Me (Live 1965)
TTITLE7=Rhodesbud Boogie (Live 1965)
TTITLE8=Driftwood on the River (Live 1965)
TTITLE9=Try Me One More Time (Live 1965)
TTITLE10=Last Letter (Jack Greene) (Live 1965)
TTITLE11=Hold It (Drum Solo Jan Curtis) (Live 1965)
TTITLE12=I Washed My Hands in Muddy Water (Jack Greene) (Live 1965)
TTITLE13=Pass the Booze (encore) (Live 1965)
TTITLE14=Walking the Floor Over You (Live 1965)
EXTD=
EXTT0=
EXTT1=
EXTT2=
EXTT3=
EXTT4=
EXTT5=
EXTT6=
EXTT7=
EXTT8=
EXTT9=
EXTT10=
EXTT11=
EXTT12=
EXTT13=
EXTT14=
PLAYORDER=
